<svg width="64" height="64" viewBox="0 0 64 64" fill="none" xmlns="http://www.w3.org/2000/svg">
  <rect width="64" height="64" rx="18" fill="#123A7A"/>
  <path d="M11 18C11 14.6863 13.6863 12 17 12H43L38.2727 19.6364H25.25V28.75H34V36.3864H25.25V50L17 41.9091V18H11Z" fill="white"/>
  <path d="M41 18C41 14.6863 43.6863 12 47 12H52V28H41V18Z" fill="#12B3A5"/>
  <path d="M41 31H52V45.5455C52 51.8716 46.8716 57 40.5455 57H28L39.9091 45.0909L41 31Z" fill="#12B3A5"/>
  <path d="M18 56C24.8794 41.6356 34.9434 31.9321 52 25L54.2 28.8C40.9786 34.4347 31.7808 43.0776 25.5 57H18V56Z" fill="#12B3A5"/>
  <path d="M52.3 28.3L59 26L55.1 32L52.3 28.3Z" fill="#12B3A5"/>
  <circle cx="46.5" cy="10.5" r="4.5" fill="#12B3A5"/>
</svg>
