<svg width="380" height="360" viewBox="0 0 380 360" fill="none" xmlns="http://www.w3.org/2000/svg">
  <path d="M84 57.696C84 42.9539 95.9539 31 110.696 31H233.677L213.313 62.9113H137.887C130.372 62.9113 124.28 69.0036 124.28 76.5185V172.632L84 209.972V57.696Z" fill="#143A7B"/>
  <path d="M124.28 106.025H196.53V135.843H124.28V106.025Z" fill="#143A7B"/>
  <path d="M228.445 69.7132C228.445 54.6836 240.629 42.5 255.658 42.5H287.063V127.78C287.063 153.5 266.211 174.352 240.491 174.352H185.532L220.06 143.51V69.7132H228.445Z" fill="#14B6A6"/>
  <path d="M257.858 42.5C272.307 42.5 284.021 30.7865 284.021 16.3377C284.021 30.7865 295.735 42.5 310.184 42.5C295.735 42.5 284.021 54.2135 284.021 68.6623C284.021 54.2135 272.307 42.5 257.858 42.5Z" fill="#14B6A6"/>
  <path d="M165.649 208.701C190.05 154.761 228.44 117.409 314.612 95.5128L322.507 115.699C252.499 135.143 216.201 166.276 195.032 208.701H165.649Z" fill="#14B6A6"/>
  <path d="M309.84 105.14L346.922 100.793L329.142 133.629L309.84 105.14Z" fill="#14B6A6"/>
  <path d="M49.8008 304V227.636H103.438V240.943H65.9428V259.829H100.038V273.136H65.9428V304H49.8008ZM141.911 305.279C136.08 305.279 131.05 304.071 126.82 301.655C122.616 299.212 119.372 295.815 117.089 291.463C114.806 287.084 113.664 281.958 113.664 276.084C113.664 270.336 114.806 265.285 117.089 260.932C119.397 256.554 122.603 253.144 126.708 250.703C130.84 248.26 135.691 247.039 141.261 247.039C144.943 247.039 148.373 247.614 151.551 248.763C154.755 249.887 157.543 251.588 159.913 253.865C162.309 256.142 164.171 259.01 165.499 262.47C166.827 265.905 167.491 269.921 167.491 274.519V278.824H120.005V268.137H152.165C152.165 265.659 151.625 263.47 150.544 261.568C149.464 259.666 147.963 258.177 146.044 257.102C144.151 256 141.942 255.449 139.414 255.449C136.786 255.449 134.454 256.058 132.42 257.273C130.41 258.462 128.839 260.068 127.708 262.09C126.577 264.086 125.996 266.315 125.963 268.769V279.001C125.963 282.102 126.528 284.781 127.658 287.038C128.789 289.294 130.375 291.038 132.418 292.268C134.461 293.499 136.882 294.114 139.681 294.114C141.54 294.114 143.242 293.852 144.785 293.327C146.329 292.802 147.651 292.022 148.749 290.985C149.847 289.949 150.685 288.681 151.419 287.184L166.567 288.186C165.867 291.932 164.437 295.207 162.277 298.012C160.143 300.793 157.383 302.962 154 304.519C150.644 306.062 146.615 306.834 141.911 306.834V305.279ZM201.597 304V227.636H217.649V257.447H218.138C218.859 255.859 219.903 254.246 221.269 252.608C222.66 250.943 224.503 249.561 226.799 248.461C229.122 247.339 232.043 246.778 235.56 246.778C240.151 246.778 244.389 247.973 248.273 250.365C252.158 252.731 255.266 256.224 257.598 260.843C259.93 265.437 261.096 271.067 261.096 277.732C261.096 284.248 259.963 289.824 257.697 294.46C255.457 299.078 252.385 302.604 248.479 305.04C244.595 307.451 240.274 308.656 235.469 308.656C232.062 308.656 229.184 308.109 226.835 307.016C224.487 305.923 222.598 304.548 221.171 302.89C219.743 301.232 218.653 299.607 217.902 298.014H217.213V304H201.597ZM217.328 277.658C217.328 281.164 217.812 284.217 218.781 286.818C219.75 289.419 221.155 291.438 222.997 292.873C224.838 294.309 227.083 295.027 229.733 295.027C232.408 295.027 234.664 294.299 236.5 292.843C238.336 291.361 239.729 289.329 240.679 286.744C241.642 284.134 242.124 281.105 242.124 277.658C242.124 274.236 241.651 271.25 240.707 268.7C239.763 266.15 238.37 264.162 236.53 262.736C234.689 261.309 232.423 260.596 229.733 260.596C227.067 260.596 224.811 261.3 222.966 262.706C221.12 264.111 219.718 266.097 218.76 268.663C217.805 271.23 217.328 274.228 217.328 277.658ZM299.407 227.636V304H283.264V227.636H299.407ZM341.014 305.279C335.183 305.279 330.13 304.047 325.856 301.581C321.582 299.116 318.291 295.659 315.983 291.213C313.699 286.75 312.558 281.548 312.558 275.604C312.558 269.609 313.699 264.392 315.983 259.953C318.291 255.514 321.582 252.056 325.856 249.591C330.13 247.126 335.183 245.893 341.014 245.893C346.845 245.893 351.898 247.126 356.172 249.591C360.446 252.056 363.725 255.514 366.005 259.953C368.312 264.392 369.466 269.609 369.466 275.604C369.466 281.548 368.312 286.75 366.005 291.213C363.725 295.659 360.446 299.116 356.172 301.581C351.898 304.047 346.845 305.279 341.014 305.279ZM341.089 292.624C343.741 292.624 345.956 291.871 347.734 290.365C349.513 288.834 350.851 286.746 351.746 284.101C352.673 281.456 353.137 278.437 353.137 275.044C353.137 271.651 352.673 268.631 351.746 265.986C350.851 263.341 349.513 261.253 347.734 259.722C345.956 258.191 343.741 257.426 341.089 257.426C338.412 257.426 336.153 258.191 334.313 259.722C332.498 261.253 331.131 263.341 330.212 265.986C329.317 268.631 328.87 271.651 328.87 275.044C328.87 278.437 329.317 281.456 330.212 284.101C331.131 286.746 332.498 288.834 334.313 290.365C336.153 291.871 338.412 292.624 341.089 292.624Z" fill="#143A7B"/>
</svg>
