<svg width="128" height="128" viewBox="0 0 128 128" fill="none" xmlns="http://www.w3.org/2000/svg">
  <rect width="128" height="128" rx="32" fill="#143A7B"/>
  <path d="M24 34.4468C24 26.4677 30.4677 20 38.4468 20H105L94.0992 37.0837H53.2514C49.1851 37.0837 45.8886 40.3801 45.8886 44.4465V96.4857L24 116.793V34.4468Z" fill="white"/>
  <path d="M45.8887 60.2864H84.6832V76.2956H45.8887V60.2864Z" fill="white"/>
  <path d="M101.095 40.7372C101.095 32.6702 107.635 26.1299 115.702 26.1299H128V71.9098C128 86.0301 116.553 97.4771 102.433 97.4771H80.1855L98.3545 80.0286V40.7372H101.095Z" fill="#14B6A6"/>
  <path d="M118.298 25.5147C124.267 25.5147 129.105 20.6774 129.105 14.7074C129.105 20.6774 133.943 25.5147 139.913 25.5147C133.943 25.5147 129.105 30.352 129.105 36.322C129.105 30.352 124.267 25.5147 118.298 25.5147Z" fill="#14B6A6"/>
  <path d="M69.7939 116.339C79.8741 93.8014 95.7291 78.1919 131.316 69.0415L134.578 77.4745C105.666 85.5967 90.6696 98.6079 81.9272 116.339H69.7939Z" fill="#14B6A6"/>
  <path d="M129.346 73.2135L144.663 71.4188L137.321 84.9846L129.346 73.2135Z" fill="#14B6A6"/>
</svg>
