<svg width="768" height="196" viewBox="0 0 768 196" fill="none" xmlns="http://www.w3.org/2000/svg">
  <path d="M66 45.5C66 31.4167 77.4167 20 91.5 20H209L189.547 50.5H117.5C110.32 50.5 104.5 56.3203 104.5 63.5V143.293L66 179V45.5Z" fill="#143A7B"/>
  <path d="M104.5 92H173.5V120.5H104.5V92Z" fill="#143A7B"/>
  <path d="M204 57C204 42.6406 215.641 31 230 31H260V112.5C260 137.077 240.077 157 215.5 157H163L196 127.5V57H204Z" fill="#14B6A6"/>
  <path d="M232 31C245.807 31 257 19.8071 257 6C257 19.8071 268.193 31 282 31C268.193 31 257 42.1929 257 56C257 42.1929 245.807 31 232 31Z" fill="#14B6A6"/>
  <path d="M142 177C165.314 125.466 201.996 89.7689 284.353 68.8501L291.898 88.1441C224.985 106.724 190.287 136.475 170.064 177H142Z" fill="#14B6A6"/>
  <path d="M279.797 77.9038L315.233 73.7495L298.252 105.117L279.797 77.9038Z" fill="#14B6A6"/>
  <path d="M354.26 145V43.1818H424.966V60.924H375.785V86.1051H420.486V103.847H375.785V145H354.26ZM474.663 146.705C466.976 146.705 460.347 145.114 454.777 141.932C449.241 138.716 444.969 134.245 441.959 128.517C438.95 122.756 437.445 116.011 437.445 108.281C437.445 100.717 438.95 94.0703 441.959 88.3423C445.002 82.5812 449.224 78.093 454.628 74.8778C460.065 71.6626 466.446 70.055 473.77 70.055C478.611 70.055 483.121 70.8111 487.3 72.3232C491.512 73.8021 495.179 76.0395 498.303 79.0355C501.46 82.0315 503.911 85.8071 505.66 90.3622C507.41 94.8842 508.285 100.171 508.285 106.224V111.894H445.854V97.8232H488.144C488.144 94.5604 487.433 91.6799 486.013 89.1818C484.594 86.6837 482.622 84.7273 480.098 83.3125C477.607 81.8646 474.697 81.1406 471.367 81.1406C467.905 81.1406 464.833 81.9394 462.15 83.5369C459.5 85.1013 457.428 87.2145 455.935 89.8764C454.442 92.5052 453.675 95.4422 453.642 98.6875V112.193C453.642 116.285 454.386 119.819 455.874 122.795C457.362 125.77 459.451 128.07 462.142 129.696C464.834 131.323 468.024 132.136 471.714 132.136C474.165 132.136 476.409 131.786 478.447 131.086C480.485 130.386 482.229 129.345 483.678 127.962C485.127 126.58 486.234 124.89 487.001 122.894L506.987 124.216C506.063 129.156 504.177 133.473 501.329 137.168C498.515 140.83 494.875 143.686 490.408 145.735C485.975 147.767 480.726 148.784 474.663 148.784V146.705ZM552.675 145V43.1818H573.85V82.9325H574.494C575.446 80.8161 576.822 78.6641 578.623 76.4766C580.457 74.2559 582.886 72.4134 585.909 70.9492C588.965 69.4519 592.811 68.7031 597.447 68.7031C603.499 68.7031 609.086 70.2973 614.207 73.4858C619.329 76.6411 623.426 81.2976 626.5 87.4553C629.574 93.5794 631.111 101.085 631.111 109.972C631.111 118.659 629.617 126.091 626.627 132.27C623.67 138.427 619.614 143.128 614.461 146.373C609.341 149.585 603.649 151.191 597.386 151.191C592.943 151.191 589.188 150.461 586.122 148.999C583.055 147.536 580.59 145.696 578.726 143.478C576.863 141.259 575.439 139.084 574.454 136.953H573.555V145H552.675ZM573.427 109.873C573.427 114.499 574.065 118.53 575.341 121.967C576.617 125.405 578.468 128.072 580.895 129.969C583.321 131.866 586.279 132.814 589.768 132.814C593.289 132.814 596.258 131.851 598.675 129.926C601.093 127.968 602.928 125.284 604.181 121.873C605.452 118.433 606.088 114.433 606.088 109.873C606.088 105.347 605.463 101.401 604.213 98.0348C602.964 94.6681 601.128 92.0426 598.708 90.1577C596.287 88.2727 593.307 87.3303 589.768 87.3303C586.258 87.3303 583.288 88.2604 580.858 90.1207C578.428 91.9811 576.581 94.6077 575.316 97.9993C574.056 101.391 573.427 105.349 573.427 109.873ZM681.591 43.1818V145H660.076V43.1818H681.591ZM736.806 146.705C729.119 146.705 722.457 145.083 716.821 141.84C711.186 138.597 706.847 134.048 703.803 128.193C700.791 122.306 699.286 115.446 699.286 107.613C699.286 99.7121 700.791 92.8352 703.803 86.9822C706.847 81.1293 711.186 76.5803 716.821 73.3352C722.457 70.0901 729.119 68.4676 736.806 68.4676C744.493 68.4676 751.155 70.0901 756.79 73.3352C762.425 76.5803 766.747 81.1293 769.754 86.9822C772.798 92.8352 774.32 99.7121 774.32 107.613C774.32 115.446 772.798 122.306 769.754 128.193C766.747 134.048 762.425 138.597 756.79 141.84C751.155 145.083 744.493 146.705 736.806 146.705ZM736.905 130.042C740.401 130.042 743.321 129.05 745.665 127.065C748.009 125.048 749.772 122.297 750.955 118.813C752.176 115.329 752.786 111.354 752.786 106.889C752.786 102.423 752.176 98.4482 750.955 94.9645C749.772 91.4808 748.009 88.7292 745.665 86.7095C743.321 84.6899 740.401 83.680 736.905 83.680C733.376 83.680 730.4 84.6899 727.978 86.7095C725.59 88.7292 723.791 91.4808 722.584 94.9645C721.4 98.4482 720.809 102.423 720.809 106.889C720.809 111.354 721.4 115.329 722.584 118.813C723.791 122.297 725.59 125.048 727.978 127.065C730.4 129.05 733.376 130.042 736.905 130.042Z" fill="#143A7B"/>
</svg>
